<?xml version="1.0" encoding="utf-8" standalone="no"?>
<!DOCTYPE svg PUBLIC "-//W3C//DTD SVG 1.1//EN"
  "http://www.w3.org/Graphics/SVG/1.1/DTD/svg11.dtd">
<svg xmlns:xlink="http://www.w3.org/1999/xlink" width="216pt" height="216pt" viewBox="0 0 216 216" xmlns="http://www.w3.org/2000/svg" version="1.1">
 <metadata>
  <rdf:RDF xmlns:dc="http://purl.org/dc/elements/1.1/" xmlns:cc="http://creativecommons.org/ns#" xmlns:rdf="http://www.w3.org/1999/02/22-rdf-syntax-ns#">
   <cc:Work>
    <dc:type rdf:resource="http://purl.org/dc/dcmitype/StillImage"/>
    <dc:date>2024-11-25T16:06:58.433089</dc:date>
    <dc:format>image/svg+xml</dc:format>
    <dc:creator>
     <cc:Agent>
      <dc:title>Matplotlib v3.8.4, https://matplotlib.org/</dc:title>
     </cc:Agent>
    </dc:creator>
   </cc:Work>
  </rdf:RDF>
 </metadata>
 <defs>
  <style type="text/css">*{stroke-linejoin: round; stroke-linecap: butt}</style>
 </defs>
 <g id="figure_1">
  <g id="patch_1">
   <path d="M 0 216 
L 216 216 
L 216 0 
L 0 0 
z
" style="fill: #ffffff"/>
  </g>
  <g id="axes_1">
   <g id="patch_2">
    <path d="M 0 216 
L 216 216 
L 216 0 
L 0 0 
z
" style="fill: #7da7fc"/>
   </g>
   <g id="line2d_1">
    <path clip-path="url(#p02c2175ecb)" style="fill: none; stroke: #ffffff; stroke-width: 3; stroke-linecap: square"/>
   </g>
   <g id="line2d_2">
    <path d="M -1 64.994977 
L 5.263169 64.415407 
L 20.802979 63.035572 
L 36.271408 61.719532 
L 51.669639 60.46623 
L 66.998826 59.274633 
L 82.260095 58.143736 
L 97.454545 57.072558 
L 112.583247 56.060139 
L 127.647247 55.105545 
L 142.647568 54.207864 
L 157.585207 53.366203 
L 172.461138 52.579691 
L 187.276313 51.847478 
L 202.031663 51.168733 
L 216.728094 50.542643 
L 217 50.531977 
" clip-path="url(#p02c2175ecb)" style="fill: none; stroke: #ffffff; stroke-width: 3; stroke-linecap: square"/>
   </g>
   <g id="line2d_3">
    <path clip-path="url(#p02c2175ecb)" style="fill: none; stroke: #ffffff; stroke-width: 3; stroke-linecap: square"/>
   </g>
   <g id="line2d_4">
    <path d="M -1 160.864143 
L 6.967066 160.351653 
L 23.822199 159.334252 
L 40.59818 158.387589 
L 57.296392 157.510432 
L 73.918178 156.701578 
L 90.464848 155.959856 
L 106.93768 155.284125 
L 123.337917 154.673274 
L 139.666774 154.126217 
L 155.925433 153.641897 
L 172.115048 153.219284 
L 188.236745 152.85737 
L 204.291622 152.555174 
L 217 152.361688 
" clip-path="url(#p02c2175ecb)" style="fill: none; stroke: #ffffff; stroke-width: 3; stroke-linecap: square"/>
   </g>
   <g id="line2d_5">
    <path d="M 0 0 
" clip-path="url(#p02c2175ecb)" style="fill: none; stroke: #ffffff; stroke-width: 3; stroke-linecap: square"/>
   </g>
   <g id="line2d_6">
    <path d="M 152.371722 217 
L 154.281101 203.951943 
L 155.94315 191.102989 
L 157.276208 179.149586 
L 158.296786 168.242613 
L 159.143588 156.882051 
L 159.696892 146.754479 
L 160.053651 136.238693 
L 160.169526 127.157604 
L 160.088026 117.767366 
L 159.772474 108.047304 
L 159.322238 100.01867 
L 158.667691 91.752002 
L 157.778049 83.233841 
L 156.617571 74.449723 
L 155.144766 65.38411 
L 153.80652 58.390169 
L 152.242615 51.221022 
L 150.427365 43.868755 
L 148.332241 36.325011 
L 145.925673 28.580962 
L 143.172911 20.62727 
L 140.035957 12.454028 
L 136.473622 4.050696 
L 134.160022 -1 
L 134.160022 -1 
" clip-path="url(#p02c2175ecb)" style="fill: none; stroke: #ffffff; stroke-width: 3; stroke-linecap: square"/>
   </g>
   <g id="line2d_7">
    <path d="M 0 0 
" clip-path="url(#p02c2175ecb)" style="fill: none; stroke: #ffffff; stroke-width: 3; stroke-linecap: square"/>
   </g>
   <g id="line2d_8">
    <path d="M 81.174749 217 
L 80.425721 208.413634 
L 79.347839 198.820646 
L 78.168619 190.32982 
L 76.717634 181.576367 
L 75.272402 174.07018 
L 73.584769 166.361506 
L 71.625243 158.440263 
L 69.360694 150.295733 
L 66.754026 141.916513 
L 64.394723 135.036026 
L 61.766852 127.990996 
L 58.845316 120.774475 
L 55.603171 113.37912 
L 52.011705 105.79714 
L 48.040604 98.02023 
L 43.65822 90.039486 
L 38.831945 81.845282 
L 34.901037 75.553269 
L 30.687894 69.130485 
L 26.178775 62.571714 
L 21.3603 55.871268 
L 16.219616 49.022902 
L 10.744535 42.019714 
L 4.923656 34.854033 
L -1 27.815048 
L -1 27.815048 
" clip-path="url(#p02c2175ecb)" style="fill: none; stroke: #ffffff; stroke-width: 3; stroke-linecap: square"/>
   </g>
   <g id="line2d_9">
    <path d="M 0 0 
" clip-path="url(#p02c2175ecb)" style="fill: none; stroke: #ffffff; stroke-width: 3; stroke-linecap: square"/>
   </g>
   <g id="line2d_10">
    <path d="M 0 0 
" clip-path="url(#p02c2175ecb)" style="fill: none; stroke: #ffffff; stroke-width: 3; stroke-linecap: square"/>
   </g>
   <g id="line2d_11">
    <path d="M 217 34.055454 
L 215.132142 36.514668 
L 211.243033 41.639629 
L 207.433424 46.664243 
L 203.700194 51.59238 
L 200.040401 56.42769 
L 196.451267 61.173621 
L 192.930169 65.83343 
L 189.474629 70.410201 
L 186.082297 74.906855 
L 182.750949 79.32616 
L 179.478475 83.670743 
L 176.262873 87.9431 
L 173.10224 92.145604 
L 169.994766 96.280512 
L 166.938729 100.349975 
L 163.932488 104.356039 
L 160.974481 108.30066 
L 158.063216 112.185701 
L 155.19727 116.012944 
L 152.375281 119.784092 
L 149.595951 123.500771 
L 146.858036 127.16454 
L 144.160346 130.776892 
L 141.50174 134.339256 
L 138.881126 137.853002 
L 136.297457 141.319446 
L 133.749728 144.739851 
L 131.236974 148.115429 
L 128.758267 151.447346 
L 126.312719 154.73672 
L 123.899471 157.984631 
L 121.517701 161.192115 
L 119.166615 164.360172 
L 116.84545 167.489762 
L 114.553471 170.581814 
L 112.289969 173.637221 
L 110.05426 176.656847 
L 107.845686 179.641522 
L 105.663609 182.592052 
L 103.507415 185.509212 
L 101.376512 188.393752 
L 99.270325 191.246397 
L 97.188302 194.067848 
L 95.129905 196.858783 
L 93.094617 199.619858 
L 91.081937 202.35171 
L 89.091378 205.054952 
L 87.122471 207.73018 
L 85.17476 210.377973 
L 83.247804 212.99889 
L 81.341176 215.593474 
L 80.30811 217 
" clip-path="url(#p02c2175ecb)" style="fill: none; stroke: #ffffff; stroke-width: 3; stroke-linecap: square"/>
   </g>
   <g id="line2d_12">
    <path d="M 12.109101 -1 
L 7.439351 4.531233 
L 2.245452 10.687441 
L -1 14.536731 
" clip-path="url(#p02c2175ecb)" style="fill: none; stroke: #ffffff; stroke-width: 3; stroke-linecap: square"/>
   </g>
   <g id="line2d_13">
    <path clip-path="url(#p02c2175ecb)" style="fill: none; stroke: #ffffff; stroke-width: 3; stroke-linecap: square"/>
   </g>
   <g id="line2d_14">
    <path clip-path="url(#p02c2175ecb)" style="fill: none; stroke: #ffffff; stroke-width: 3; stroke-linecap: square"/>
   </g>
   <g id="line2d_15">
    <path d="M 134.968168 -1 
L 130.535806 4.5234 
L 125.794894 10.436169 
L 121.165614 16.214381 
L 116.642909 21.864041 
L 112.222058 27.390764 
L 107.898645 32.799803 
L 103.668536 38.09608 
L 99.52785 43.284217 
L 95.472945 48.368555 
L 91.500394 53.353179 
L 87.606973 58.241938 
L 83.78964 63.038462 
L 80.045525 67.746177 
L 76.371919 72.368325 
L 72.766258 76.907969 
L 69.226114 81.368013 
L 65.749187 85.75121 
L 62.333297 90.060172 
L 58.976371 94.29738 
L 55.676444 98.465192 
L 52.431642 102.565853 
L 49.240186 106.6015 
L 46.100378 110.574169 
L 43.010602 114.485802 
L 39.969314 118.338252 
L 36.975042 122.133291 
L 34.026378 125.872609 
L 31.121978 129.557826 
L 28.260554 133.190489 
L 25.440876 136.772082 
L 22.661762 140.304025 
L 19.922083 143.787682 
L 17.220754 147.22436 
L 14.556735 150.615313 
L 11.929026 153.961745 
L 9.336669 157.264817 
L 6.778741 160.525639 
L 4.254356 163.745285 
L 1.762661 166.924784 
L -0.697166 170.065128 
L -1 170.451926 
" clip-path="url(#p02c2175ecb)" style="fill: none; stroke: #ffffff; stroke-width: 3; stroke-linecap: square"/>
   </g>
   <g id="line2d_16">
    <path d="M 217 145.020194 
L 216.343821 145.939857 
L 213.951316 149.295493 
L 211.591013 152.608347 
L 209.262077 155.879504 
L 206.963707 159.110005 
L 204.695131 162.300854 
L 202.455606 165.453018 
L 200.244417 168.567429 
L 198.060873 171.644987 
L 195.904309 174.686556 
L 193.774085 177.692976 
L 191.66958 180.665052 
L 189.590197 183.603566 
L 187.535359 186.509271 
L 185.504508 189.382896 
L 183.497105 192.225146 
L 181.512629 195.036701 
L 179.550576 197.818223 
L 177.610457 200.570349 
L 175.691801 203.293698 
L 173.794151 205.98887 
L 171.917063 208.656443 
L 170.060109 211.296982 
L 168.222872 213.911032 
L 166.40495 216.499122 
L 166.053328 217 
" clip-path="url(#p02c2175ecb)" style="fill: none; stroke: #ffffff; stroke-width: 3; stroke-linecap: square"/>
   </g>
   <g id="line2d_17">
    <path clip-path="url(#p02c2175ecb)" style="fill: none; stroke: #ffffff; stroke-width: 3; stroke-linecap: square"/>
   </g>
   <g id="line2d_18">
    <path d="M 175.788423 206.181572 
L 179.999798 199.398083 
L 160.156073 185.124123 
L 166.671107 169.63848 
L 151.479275 155.43459 
L 75.288393 143.204236 
L 78.684493 139.56513 
L 79.428253 102.060177 
L 153.241873 53.605552 
L 143.691406 39.191353 
L 147.651065 33.236769 
L 36.000338 9.818018 
" clip-path="url(#p02c2175ecb)" style="fill: none; stroke-dasharray: 11.1,4.8; stroke-dashoffset: 0; stroke: #ffffff; stroke-width: 3"/>
   </g>
   <g id="text_1">
    <!-- Tφ -->
    <g style="fill: #ffffff" transform="translate(14.28 143.32) scale(1.28 -1.28)">
     <defs>
      <path id="DejaVuSans-BoldOblique-54" d="M 488 4666 
L 4788 4666 
L 4609 3756 
L 3059 3756 
L 2328 0 
L 1125 0 
L 1856 3756 
L 306 3756 
L 488 4666 
z
" transform="scale(0.015625)"/>
      <path id="DejaVuSans-BoldOblique-3c6" d="M 3688 3531 
Q 4159 3531 4522 3131 
Q 4816 2803 4816 2253 
Q 4816 2022 4763 1747 
Q 4463 200 2869 0 
L 2609 -1331 
L 1497 -1331 
L 1756 0 
Q 488 166 488 1272 
Q 488 1491 538 1747 
Q 706 2609 1313 3097 
Q 1813 3500 2338 3500 
L 2200 2784 
Q 2125 2778 1941 2516 
Q 1759 2250 1700 1950 
Q 1641 1650 1641 1475 
Q 1641 1025 1909 800 
L 2150 2025 
Q 2441 3531 3688 3531 
z
M 3728 2356 
Q 3728 2700 3575 2700 
Q 3394 2700 3263 2025 
L 3022 800 
Q 3500 1103 3663 1859 
Q 3728 2159 3728 2356 
z
" transform="scale(0.015625)"/>
     </defs>
     <use xlink:href="#DejaVuSans-BoldOblique-54"/>
     <use xlink:href="#DejaVuSans-BoldOblique-3c6" x="68.212891"/>
    </g>
   </g>
  </g>
 </g>
 <defs>
  <clipPath id="p02c2175ecb">
   <rect x="0" y="0" width="216" height="216"/>
  </clipPath>
 </defs>
</svg>
