<?xml version="1.0" encoding="utf-8" standalone="no"?>
<!DOCTYPE svg PUBLIC "-//W3C//DTD SVG 1.1//EN"
  "http://www.w3.org/Graphics/SVG/1.1/DTD/svg11.dtd">
<svg xmlns:xlink="http://www.w3.org/1999/xlink" width="432pt" height="432pt" viewBox="0 0 432 432" xmlns="http://www.w3.org/2000/svg" version="1.1">
 <metadata>
  <rdf:RDF xmlns:dc="http://purl.org/dc/elements/1.1/" xmlns:cc="http://creativecommons.org/ns#" xmlns:rdf="http://www.w3.org/1999/02/22-rdf-syntax-ns#">
   <cc:Work>
    <dc:type rdf:resource="http://purl.org/dc/dcmitype/StillImage"/>
    <dc:date>2024-11-25T15:49:10.144179</dc:date>
    <dc:format>image/svg+xml</dc:format>
    <dc:creator>
     <cc:Agent>
      <dc:title>Matplotlib v3.8.4, https://matplotlib.org/</dc:title>
     </cc:Agent>
    </dc:creator>
   </cc:Work>
  </rdf:RDF>
 </metadata>
 <defs>
  <style type="text/css">*{stroke-linejoin: round; stroke-linecap: butt}</style>
 </defs>
 <g id="figure_1">
  <g id="patch_1">
   <path d="M 0 432 
L 432 432 
L 432 0 
L 0 0 
z
" style="fill: #ffffff"/>
  </g>
  <g id="axes_1">
   <g id="patch_2">
    <path d="M 0 432 
L 432 432 
L 432 0 
L 0 0 
z
" style="fill: #7da7fc"/>
   </g>
   <g id="line2d_1">
    <path clip-path="url(#pbdd9be84bb)" style="fill: none; stroke: #ffffff; stroke-width: 3; stroke-linecap: square"/>
   </g>
   <g id="line2d_2">
    <path d="M -1 129.897418 
L 10.526338 128.830814 
L 41.605958 126.071145 
L 72.542816 123.439065 
L 103.339278 120.93246 
L 133.997653 118.549266 
L 164.520191 116.287472 
L 194.90909 114.145115 
L 225.166494 112.120278 
L 255.294495 110.211091 
L 285.295137 108.415728 
L 315.170414 106.732405 
L 344.922277 105.159382 
L 374.552627 103.694956 
L 404.063325 102.337466 
L 433 101.104721 
" clip-path="url(#pbdd9be84bb)" style="fill: none; stroke: #ffffff; stroke-width: 3; stroke-linecap: square"/>
   </g>
   <g id="line2d_3">
    <path clip-path="url(#pbdd9be84bb)" style="fill: none; stroke: #ffffff; stroke-width: 3; stroke-linecap: square"/>
   </g>
   <g id="line2d_4">
    <path d="M -1 321.663959 
L 13.934132 320.703305 
L 47.644398 318.668503 
L 81.196361 316.775178 
L 114.592784 315.020864 
L 147.836355 313.403156 
L 180.929696 311.919712 
L 213.875359 310.568251 
L 246.675834 309.346548 
L 279.333547 308.252434 
L 311.850865 307.283795 
L 344.230095 306.438567 
L 376.473489 305.714739 
L 408.583244 305.110348 
L 433 304.738601 
" clip-path="url(#pbdd9be84bb)" style="fill: none; stroke: #ffffff; stroke-width: 3; stroke-linecap: square"/>
   </g>
   <g id="line2d_5">
    <path d="M 0 0 
" clip-path="url(#pbdd9be84bb)" style="fill: none; stroke: #ffffff; stroke-width: 3; stroke-linecap: square"/>
   </g>
   <g id="line2d_6">
    <path d="M 304.897638 433 
L 307.393686 416.207162 
L 310.075972 396.63205 
L 312.236126 379.274344 
L 314.236871 361.345478 
L 315.75675 345.940979 
L 317.116516 330.089234 
L 318.287176 313.764103 
L 319.234542 296.937214 
L 319.804723 283.093803 
L 320.182133 268.892549 
L 320.339052 254.315208 
L 320.243561 239.342223 
L 319.984351 227.84028 
L 319.544947 216.094608 
L 318.905694 204.095279 
L 318.044641 191.831818 
L 316.937253 179.293173 
L 315.556097 166.467682 
L 313.870488 153.343034 
L 311.846102 139.906238 
L 310.289531 130.76822 
L 308.55297 121.481143 
L 306.623008 112.040606 
L 304.48523 102.442045 
L 302.124152 92.680728 
L 299.523164 82.751749 
L 296.664481 72.650022 
L 293.529091 62.370267 
L 290.096723 51.907005 
L 286.345822 41.254539 
L 282.25355 30.406946 
L 277.795799 19.358047 
L 272.947244 8.101393 
L 268.786267 -1 
L 268.786267 -1 
" clip-path="url(#pbdd9be84bb)" style="fill: none; stroke: #ffffff; stroke-width: 3; stroke-linecap: square"/>
   </g>
   <g id="line2d_7">
    <path d="M 0 0 
" clip-path="url(#pbdd9be84bb)" style="fill: none; stroke: #ffffff; stroke-width: 3; stroke-linecap: square"/>
   </g>
   <g id="line2d_8">
    <path d="M 162.273633 433 
L 161.362077 422.190715 
L 160.000362 408.684744 
L 158.33731 394.846257 
L 156.766076 383.525596 
L 154.958892 371.973707 
L 152.893355 360.18173 
L 150.544805 348.14036 
L 147.886107 335.839829 
L 144.887431 323.269879 
L 142.395725 313.659149 
L 139.679453 303.886078 
L 136.722597 293.945741 
L 133.508052 283.833026 
L 130.017575 273.542622 
L 126.231766 263.069009 
L 122.13004 252.406445 
L 117.690632 241.54895 
L 112.890611 230.490285 
L 107.705925 219.223929 
L 102.111472 207.743048 
L 96.081208 196.040461 
L 89.58829 184.108589 
L 82.605264 171.9394 
L 75.104287 159.524339 
L 69.802075 151.106538 
L 64.248978 142.572512 
L 58.436821 133.919216 
L 52.35755 125.143428 
L 46.003275 116.241729 
L 39.366313 107.210482 
L 32.439231 98.045803 
L 25.214875 88.743538 
L 17.686405 79.299224 
L 9.847312 69.708065 
L -1 56.804381 
L -1 56.804381 
" clip-path="url(#pbdd9be84bb)" style="fill: none; stroke: #ffffff; stroke-width: 3; stroke-linecap: square"/>
   </g>
   <g id="line2d_9">
    <path d="M 0 0 
" clip-path="url(#pbdd9be84bb)" style="fill: none; stroke: #ffffff; stroke-width: 3; stroke-linecap: square"/>
   </g>
   <g id="line2d_10">
    <path d="M 0 0 
" clip-path="url(#pbdd9be84bb)" style="fill: none; stroke: #ffffff; stroke-width: 3; stroke-linecap: square"/>
   </g>
   <g id="line2d_11">
    <path d="M 433 69.427503 
L 430.264283 73.029335 
L 422.486066 83.279259 
L 414.866849 93.328486 
L 407.400389 103.18476 
L 400.080801 112.85538 
L 392.902533 122.347241 
L 385.860339 131.66686 
L 378.949257 140.820403 
L 372.164593 149.81371 
L 365.501898 158.652319 
L 358.956951 167.341485 
L 352.525747 175.8862 
L 346.20448 184.291208 
L 339.989532 192.561025 
L 333.877457 200.699949 
L 327.864977 208.712078 
L 321.948963 216.601319 
L 316.126433 224.371402 
L 310.394539 232.025889 
L 304.750562 239.568183 
L 299.191902 247.001542 
L 293.716072 254.329081 
L 288.320691 261.553784 
L 283.00348 268.678511 
L 277.762253 275.706004 
L 272.594915 282.638893 
L 267.499456 289.479703 
L 262.473948 296.230859 
L 257.516535 302.894691 
L 252.625437 309.47344 
L 247.798942 315.969262 
L 243.035401 322.384231 
L 238.33323 328.720343 
L 233.6909 334.979524 
L 229.106942 341.163628 
L 224.579938 347.274443 
L 220.108521 353.313693 
L 215.691371 359.283045 
L 211.327217 365.184104 
L 207.01483 371.018424 
L 202.753024 376.787504 
L 198.540651 382.492793 
L 194.376604 388.135695 
L 190.25981 393.717566 
L 186.189235 399.239717 
L 182.163874 404.703419 
L 178.182756 410.109903 
L 174.244942 415.460361 
L 170.34952 420.755947 
L 166.495609 425.99778 
L 162.682352 431.186948 
L 161.350701 433 
" clip-path="url(#pbdd9be84bb)" style="fill: none; stroke: #ffffff; stroke-width: 3; stroke-linecap: square"/>
   </g>
   <g id="line2d_12">
    <path d="M 23.373951 -1 
L 14.878701 9.062465 
L 4.490905 21.374882 
L -1 27.887406 
" clip-path="url(#pbdd9be84bb)" style="fill: none; stroke: #ffffff; stroke-width: 3; stroke-linecap: square"/>
   </g>
   <g id="line2d_13">
    <path clip-path="url(#pbdd9be84bb)" style="fill: none; stroke: #ffffff; stroke-width: 3; stroke-linecap: square"/>
   </g>
   <g id="line2d_14">
    <path clip-path="url(#pbdd9be84bb)" style="fill: none; stroke: #ffffff; stroke-width: 3; stroke-linecap: square"/>
   </g>
   <g id="line2d_15">
    <path d="M 269.133866 -1 
L 261.071612 9.046801 
L 251.589789 20.872339 
L 242.331228 32.428761 
L 233.285817 43.728082 
L 224.444115 54.781528 
L 215.79729 65.599605 
L 207.337071 76.19216 
L 199.0557 86.568434 
L 190.945889 96.737109 
L 183.000788 106.706358 
L 175.213945 116.483876 
L 167.579279 126.076923 
L 160.091051 135.492355 
L 152.743839 144.736649 
L 145.532516 153.815937 
L 138.452227 162.736025 
L 131.498374 171.502419 
L 124.666593 180.120343 
L 117.952743 188.594759 
L 111.352888 196.930384 
L 104.863285 205.131707 
L 98.480372 213.203 
L 92.200757 221.148338 
L 86.021204 228.971604 
L 79.938628 236.676505 
L 73.950084 244.266582 
L 68.052756 251.745218 
L 62.243956 259.115651 
L 56.521109 266.380977 
L 50.881751 273.544163 
L 45.323524 280.608051 
L 39.844166 287.575365 
L 34.441508 294.44872 
L 29.113469 301.230625 
L 23.858052 307.923491 
L 18.673338 314.529633 
L 13.557483 321.051279 
L 8.508713 327.49057 
L 3.525322 333.849567 
L -1 339.626831 
" clip-path="url(#pbdd9be84bb)" style="fill: none; stroke: #ffffff; stroke-width: 3; stroke-linecap: square"/>
   </g>
   <g id="line2d_16">
    <path d="M 433 291.44193 
L 432.687642 291.879713 
L 427.902632 298.590985 
L 423.182025 305.216694 
L 418.524153 311.759008 
L 413.927413 318.22001 
L 409.390262 324.601708 
L 404.911212 330.906036 
L 400.488833 337.134859 
L 396.121746 343.289973 
L 391.808619 349.373113 
L 387.54817 355.385952 
L 383.33916 361.330104 
L 379.180394 367.207132 
L 375.070718 373.018542 
L 371.009016 378.765792 
L 366.994211 384.450291 
L 363.025259 390.073403 
L 359.101152 395.636446 
L 355.220915 401.140699 
L 351.383603 406.587397 
L 347.588302 411.977739 
L 343.834126 417.312886 
L 340.120218 422.593964 
L 336.445744 427.822063 
L 332.809899 432.998243 
L 332.808666 433 
" clip-path="url(#pbdd9be84bb)" style="fill: none; stroke: #ffffff; stroke-width: 3; stroke-linecap: square"/>
   </g>
   <g id="line2d_17">
    <path clip-path="url(#pbdd9be84bb)" style="fill: none; stroke: #ffffff; stroke-width: 3; stroke-linecap: square"/>
   </g>
   <g id="line2d_18">
    <path d="M 351.576846 412.363143 
L 359.999596 398.796166 
L 320.312147 370.248246 
L 333.342214 339.27696 
L 302.958551 310.86918 
L 150.576787 286.408472 
L 157.368986 279.13026 
L 158.856507 204.120354 
L 306.483745 107.211103 
L 287.382811 78.382706 
L 295.302129 66.473538 
L 72.000676 19.636036 
" clip-path="url(#pbdd9be84bb)" style="fill: none; stroke-dasharray: 11.1,4.8; stroke-dashoffset: 0; stroke: #ffffff; stroke-width: 3"/>
   </g>
   <g id="text_1">
    <!-- Tφ -->
    <g style="fill: #ffffff" transform="translate(28.56 286.64) scale(2.56 -2.56)">
     <defs>
      <path id="DejaVuSans-BoldOblique-54" d="M 488 4666 
L 4788 4666 
L 4609 3756 
L 3059 3756 
L 2328 0 
L 1125 0 
L 1856 3756 
L 306 3756 
L 488 4666 
z
" transform="scale(0.015625)"/>
      <path id="DejaVuSans-BoldOblique-3c6" d="M 3688 3531 
Q 4159 3531 4522 3131 
Q 4816 2803 4816 2253 
Q 4816 2022 4763 1747 
Q 4463 200 2869 0 
L 2609 -1331 
L 1497 -1331 
L 1756 0 
Q 488 166 488 1272 
Q 488 1491 538 1747 
Q 706 2609 1313 3097 
Q 1813 3500 2338 3500 
L 2200 2784 
Q 2125 2778 1941 2516 
Q 1759 2250 1700 1950 
Q 1641 1650 1641 1475 
Q 1641 1025 1909 800 
L 2150 2025 
Q 2441 3531 3688 3531 
z
M 3728 2356 
Q 3728 2700 3575 2700 
Q 3394 2700 3263 2025 
L 3022 800 
Q 3500 1103 3663 1859 
Q 3728 2159 3728 2356 
z
" transform="scale(0.015625)"/>
     </defs>
     <use xlink:href="#DejaVuSans-BoldOblique-54"/>
     <use xlink:href="#DejaVuSans-BoldOblique-3c6" x="68.212891"/>
    </g>
   </g>
  </g>
 </g>
 <defs>
  <clipPath id="pbdd9be84bb">
   <rect x="0" y="0" width="432" height="432"/>
  </clipPath>
 </defs>
</svg>
